<?xml version="1.0" standalone="no"?>
<!DOCTYPE svg PUBLIC "-//W3C//DTD SVG 20010904//EN"
 "http://www.w3.org/TR/2001/REC-SVG-20010904/DTD/svg10.dtd">
<svg version="1.0" xmlns="http://www.w3.org/2000/svg"
 width="225.000000pt" height="225.000000pt" viewBox="0 0 225.000000 225.000000"
 preserveAspectRatio="xMidYMid meet">

<g transform="translate(0.000000,225.000000) scale(0.100000,-0.100000)"
fill="#000000" stroke="none">
<path d="M1050 1671 c-63 -9 -95 -23 -104 -46 -3 -9 -21 -22 -40 -30 -41 -17
-69 -41 -167 -141 -8 -7 -24 -24 -37 -36 -72 -72 -92 -100 -92 -127 0 -15 -9
-36 -20 -46 -11 -10 -20 -26 -20 -36 0 -10 -10 -34 -21 -54 -20 -34 -21 -40
-9 -111 13 -76 42 -124 75 -124 9 0 24 -18 34 -42 18 -42 65 -98 82 -98 5 0
38 -14 74 -31 62 -29 68 -30 152 -23 48 3 104 13 123 21 30 12 42 12 98 -2 78
-20 131 -10 198 36 23 16 52 29 64 29 34 0 79 28 86 54 3 13 20 30 39 39 44
21 122 138 142 214 34 132 -12 285 -119 389 -63 61 -170 120 -236 130 -26 4
-59 13 -73 20 -33 17 -158 25 -229 15z m130 -21 c0 -5 13 -7 28 -4 21 4 41 -2
77 -25 55 -35 53 -41 -3 -12 -20 10 -47 22 -59 25 -19 6 -22 4 -17 -11 4 -11
3 -14 -3 -7 -30 39 -121 39 -100 -1 1 -2 -8 -12 -21 -21 -13 -9 -21 -22 -18
-30 7 -17 -3 -44 -15 -44 -6 0 -5 10 2 22 10 18 9 20 -5 15 -10 -4 -16 -1 -16
8 0 8 5 15 11 15 16 0 41 28 35 39 -11 18 25 41 65 41 21 0 39 -4 39 -10z
m-120 -22 c0 -17 -3 -19 -12 -10 -18 18 -28 15 -64 -25 -36 -40 -51 -40 -34
-1 24 51 110 79 110 36z m113 -15 c-7 -2 -19 -2 -25 0 -7 3 -2 5 12 5 14 0 19
-2 13 -5z m174 1 c-3 -3 -12 -4 -19 -1 -8 3 -5 6 6 6 11 1 17 -2 13 -5z m-340
-51 c-21 -22 -32 -11 -15 16 8 13 16 17 22 11 7 -7 4 -16 -7 -27z m-95 -11
c-7 -2 -12 -13 -12 -24 0 -10 -7 -26 -15 -34 -18 -18 -20 -4 -2 16 7 8 1 7
-15 -3 -20 -13 -28 -14 -28 -5 1 31 71 89 79 65 2 -6 -1 -13 -7 -15z m558 13
l25 -14 -25 -2 c-14 -1 -29 0 -35 2 -5 1 -25 3 -44 3 -19 1 -36 7 -39 14 -5
17 86 15 118 -3z m-150 -10 c15 -18 -1 -20 -18 -3 -9 9 -12 9 -12 -1 0 -7 -4
-9 -10 -6 -5 3 -10 2 -10 -3 0 -5 -25 -8 -56 -6 -30 2 -53 0 -50 -4 3 -5 -12
-16 -34 -25 -39 -15 -40 -15 -25 -44 17 -32 20 -57 5 -48 -13 8 -13 -8 1 -22
7 -7 6 -12 -5 -16 -10 -4 -13 -1 -9 9 7 20 -7 18 -23 -3 -13 -17 -14 -17 -7 1
5 15 3 18 -10 13 -9 -3 -21 1 -29 11 -11 15 -11 15 2 5 23 -18 65 6 65 36 0
14 -6 26 -14 29 -9 3 -11 -1 -6 -17 5 -17 3 -20 -11 -14 -12 4 -15 3 -10 -5 5
-8 2 -10 -9 -6 -14 6 -14 8 2 20 16 12 14 12 -14 3 -45 -15 -69 -44 -53 -64
14 -17 35 -21 25 -5 -3 6 1 7 10 4 11 -5 13 -10 6 -17 -7 -7 -18 -7 -35 1 -17
8 -27 8 -32 1 -3 -6 -12 -8 -19 -5 -16 6 -65 -37 -65 -56 0 -7 -13 -24 -29
-37 -16 -13 -27 -30 -24 -38 3 -7 0 -13 -6 -13 -6 0 -11 -5 -11 -11 0 -5 5 -7
12 -3 6 4 8 3 4 -4 -3 -6 1 -18 10 -26 18 -18 11 -21 -17 -6 -28 16 -26 75 5
103 13 12 31 36 40 54 9 18 26 38 39 44 12 6 39 29 59 50 21 21 54 43 74 48
21 6 50 22 65 37 22 21 41 28 93 33 36 4 68 10 72 14 13 12 51 8 64 -8z m216
-42 c15 -21 20 -32 11 -24 -12 9 -17 10 -17 2 0 -7 -5 -9 -10 -6 -6 4 -8 15
-5 26 4 11 3 19 -2 18 -17 -3 -24 1 -18 11 9 14 10 14 41 -27z m-137 -13 c0
-10 -3 -8 -9 5 -12 27 -12 43 0 25 5 -8 9 -22 9 -30z m-454 20 c-3 -5 -10 -10
-16 -10 -5 0 -9 5 -9 10 0 6 7 10 16 10 8 0 12 -4 9 -10z m495 0 c0 -5 -2 -10
-4 -10 -3 0 -8 5 -11 10 -3 6 -1 10 4 10 6 0 11 -4 11 -10z m-153 -22 c-3 -8
-6 -5 -6 6 -1 11 2 17 5 13 3 -3 4 -12 1 -19z m-114 -8 c-5 -19 -23 -39 -23
-25 0 9 20 45 24 45 2 0 2 -9 -1 -20z m-350 -10 c-3 -11 -14 -25 -24 -30 -10
-6 -16 -16 -13 -23 2 -7 -4 -13 -15 -14 -18 -2 -19 2 -10 25 20 52 74 89 62
42z m417 10 c0 -5 -2 -10 -4 -10 -3 0 -8 5 -11 10 -3 6 -1 10 4 10 6 0 11 -4
11 -10z m-109 -23 c-10 -9 -11 -8 -5 6 3 10 9 15 12 12 3 -3 0 -11 -7 -18z
m77 -2 c12 -14 18 -25 13 -25 -5 0 -16 11 -25 25 -9 14 -15 25 -13 25 2 0 13
-11 25 -25z m115 12 c6 4 8 0 4 -10 -3 -10 -2 -17 3 -17 6 0 10 5 10 12 0 6 3
8 6 5 4 -4 2 -13 -4 -20 -6 -7 -11 -39 -11 -71 1 -38 4 -54 10 -45 7 11 9 10
9 -3 0 -10 -6 -18 -14 -18 -8 0 -16 -5 -18 -12 -2 -6 -2 18 0 55 5 73 -3 121
-18 112 -12 -7 -13 8 -3 19 4 4 9 2 11 -3 2 -6 9 -8 15 -4z m-466 -42 c-13
-13 -16 -13 -21 0 -3 8 3 19 12 24 22 13 28 -4 9 -24z m576 12 c-7 -14 -10
-14 -28 0 -20 15 -20 15 3 8 14 -4 22 -2 22 6 0 7 3 10 6 6 3 -3 2 -12 -3 -20z
m111 10 c-3 -8 -12 -14 -21 -14 -13 0 -13 2 3 14 10 7 19 13 21 13 1 0 0 -6
-3 -13z m-394 -17 c0 -5 -2 -10 -4 -10 -3 0 -8 5 -11 10 -3 6 -1 10 4 10 6 0
11 -4 11 -10z m-330 -9 c0 -18 -12 -41 -22 -41 -6 0 -5 6 2 15 6 8 9 19 5 25
-3 5 -1 10 4 10 6 0 11 -4 11 -9z m730 -11 c0 -5 -5 -10 -11 -10 -5 0 -7 5 -4
10 3 6 8 10 11 10 2 0 4 -4 4 -10z m-810 -8 c0 -4 -7 -18 -16 -30 -8 -12 -12
-27 -9 -32 3 -6 4 -10 1 -10 -2 0 -11 -3 -20 -6 -22 -8 -20 14 4 54 18 29 40
43 40 24z m760 -11 c-14 -27 -27 -34 -36 -19 -4 7 -4 10 1 6 5 -5 14 1 22 12
18 26 27 26 13 1z m-340 -12 c0 -6 -4 -7 -10 -4 -5 3 -10 11 -10 16 0 6 5 7
10 4 6 -3 10 -11 10 -16z m268 -8 c7 -15 9 -36 6 -46 -5 -13 -4 -16 5 -11 13
8 11 -15 -2 -25 -4 -3 -8 -24 -10 -47 -2 -43 -15 -53 -37 -27 -8 10 -9 19 -3
28 5 6 10 34 11 61 1 27 7 53 13 57 8 5 8 8 0 13 -12 8 -15 26 -3 26 4 0 13
-13 20 -29z m-71 -3 c-3 -8 -6 -5 -6 6 -1 11 2 17 5 13 3 -3 4 -12 1 -19z
m-97 -1 c0 -17 -29 -56 -30 -40 0 6 4 14 10 18 5 3 7 12 3 20 -3 8 0 15 6 15
6 0 11 -6 11 -13z m-485 -17 c3 -5 2 -10 -4 -10 -5 0 -13 5 -16 10 -3 6 -2 10
4 10 5 0 13 -4 16 -10z m155 -15 c-7 -9 -15 -13 -19 -10 -3 3 1 10 9 15 21 14
24 12 10 -5z m144 0 c-4 -10 -20 -15 -48 -15 -32 0 -38 -3 -26 -11 12 -8 9
-10 -14 -6 -21 3 -36 -3 -61 -24 -33 -29 -59 -37 -69 -20 -13 21 80 65 172 81
26 4 48 8 49 9 1 0 0 -6 -3 -14z m-418 -47 c-9 -13 -13 -31 -9 -46 4 -17 2
-23 -6 -18 -17 11 -13 72 6 92 23 22 29 2 9 -28z m479 32 c-3 -5 -11 -10 -16
-10 -6 0 -7 5 -4 10 3 6 11 10 16 10 6 0 7 -4 4 -10z m-405 -21 c0 -5 -4 -7
-10 -4 -5 3 -10 -2 -10 -12 0 -15 -2 -16 -10 -3 -15 23 -12 30 10 30 11 0 20
-5 20 -11z m355 1 c13 -5 14 -9 5 -9 -8 0 -24 4 -35 9 -13 5 -14 9 -5 9 8 0
24 -4 35 -9z m149 -8 c3 -5 -1 -9 -9 -9 -8 0 -12 4 -9 9 3 4 7 8 9 8 2 0 6 -4
9 -8z m396 -12 c-6 -11 -16 -20 -22 -20 -6 0 -3 9 7 20 10 11 20 20 22 20 2 0
-1 -9 -7 -20z m-650 -4 c0 -2 -8 -10 -17 -17 -16 -13 -17 -12 -4 4 13 16 21
21 21 13z m243 -21 c-16 -11 -27 -12 -45 -5 -23 10 -23 11 0 6 12 -2 22 0 22
5 0 5 10 9 22 9 l22 0 -21 -15z m97 -6 c0 -6 -4 -7 -10 -4 -5 3 -10 2 -10 -2
0 -5 -7 -18 -15 -29 -12 -15 -12 -11 1 18 16 33 34 43 34 17z m-180 -14 c-14
-16 -25 -21 -16 -6 4 5 0 12 -6 14 -7 3 -2 6 11 6 20 1 21 -1 11 -14z m458 -5
c-7 -10 -14 -18 -15 -16 -6 6 9 36 18 36 5 0 4 -9 -3 -20z m-728 -4 c0 -8 7
-16 15 -20 8 -3 15 -10 15 -16 0 -6 -7 -4 -16 5 -12 12 -19 13 -30 4 -11 -9
-14 -7 -14 8 0 11 3 23 7 26 11 12 23 8 23 -7z m229 -31 c-3 -2 -18 -1 -34 3
l-29 8 25 17 c23 17 24 17 33 -3 5 -11 7 -22 5 -25z m76 35 c-3 -5 -12 -10
-18 -10 -7 0 -6 4 3 10 19 12 23 12 15 0z m-556 -26 c-6 -8 -8 -14 -3 -14 4 0
3 -5 -3 -11 -9 -9 -8 -18 4 -38 l15 -26 -21 24 c-23 26 -27 61 -9 79 16 16 32
3 17 -14z m51 -17 c-8 -9 -9 -7 -4 7 5 13 4 17 -4 12 -8 -5 -10 -2 -5 10 6 15
7 15 16 -1 6 -11 5 -21 -3 -28z m-30 3 c0 -5 -2 -10 -4 -10 -3 0 -8 5 -11 10
-3 6 -1 10 4 10 6 0 11 -4 11 -10z m140 -6 c0 -9 -5 -12 -12 -8 -8 5 -9 2 -5
-9 4 -10 2 -16 -4 -14 -12 2 -18 -8 -43 -62 -18 -39 -19 -44 -8 -37 5 3 9 -1
9 -9 0 -8 -4 -12 -8 -9 -4 2 -10 -2 -12 -8 -3 -7 -6 4 -6 24 -1 20 3 39 8 43
5 3 12 18 16 34 10 47 65 94 65 55z m95 -4 c-3 -5 -12 -10 -18 -10 -7 0 -6 4
3 10 19 12 23 12 15 0z m492 -20 c0 -20 -3 -26 -9 -18 -6 10 -8 9 -8 -4 0 -9
-5 -20 -11 -23 -5 -4 -3 10 5 30 9 21 16 39 16 41 0 2 2 4 3 4 2 0 4 -14 4
-30z m-395 8 c-9 -9 -7 -15 6 -25 16 -13 16 -14 -3 -11 -25 4 -31 48 -7 48 12
0 13 -3 4 -12z m58 -2 c0 -2 -7 -6 -15 -10 -8 -3 -15 -1 -15 4 0 6 7 10 15 10
8 0 15 -2 15 -4z m190 -7 c0 -5 5 -7 12 -3 7 4 8 3 4 -5 -4 -6 -12 -9 -17 -6
-5 4 -9 -1 -9 -9 0 -8 -5 -18 -12 -22 -6 -4 -8 -3 -5 3 4 6 -5 15 -18 21 -20
9 -27 8 -37 -6 -7 -9 -20 -18 -28 -20 -8 -1 1 11 20 28 34 29 90 41 90 19z
m57 -17 c-10 -10 -14 -22 -10 -25 3 -4 -2 -7 -11 -7 -15 0 -15 4 6 29 13 15
25 27 27 25 2 -2 -3 -12 -12 -22z m369 -17 c-4 -21 -13 -35 -21 -35 -8 0 -14
-6 -12 -12 1 -7 -3 -12 -10 -11 -6 2 -15 -6 -18 -17 -4 -11 -11 -20 -17 -20
-6 0 -6 6 2 15 7 8 9 15 5 15 -4 0 5 10 21 22 38 29 44 38 44 67 0 13 3 22 6
18 4 -3 3 -22 0 -42z m-810 19 c28 7 28 7 9 -8 -11 -8 -15 -16 -10 -16 6 0 3
-5 -5 -11 -12 -9 -10 -10 9 -5 17 3 21 2 13 -6 -11 -11 -43 -4 -41 9 3 21 -2
24 -18 12 -15 -11 -16 -11 -6 0 6 7 9 21 6 30 -4 13 -3 13 5 2 7 -9 19 -11 38
-7z m49 7 c3 -5 2 -12 -3 -15 -5 -3 -9 1 -9 9 0 17 3 19 12 6z m-262 -60 c-4
-3 -12 -10 -16 -16 -5 -6 -7 -3 -4 7 3 9 0 22 -8 28 -17 14 -28 -15 -21 -54 3
-15 1 -24 -4 -21 -16 10 -21 58 -9 87 l12 29 28 -27 c16 -15 26 -30 22 -33z
m140 43 c-7 -3 -9 -12 -6 -20 3 -9 -1 -14 -13 -14 -16 0 -17 2 -4 10 8 5 11
10 7 10 -5 0 -5 5 -2 10 3 6 12 10 18 9 9 0 9 -2 0 -5z m176 -50 c-10 -13 -10
-17 1 -24 11 -7 8 -11 -13 -21 -14 -6 -25 -15 -23 -18 8 -12 -53 -6 -65 7 -10
10 -8 12 13 12 31 0 88 44 89 68 0 11 2 13 6 4 3 -7 -1 -20 -8 -28z m227 4
c-14 -8 -15 -12 -6 -18 9 -6 6 -10 -10 -15 -16 -5 -27 -3 -35 8 -9 13 -14 14
-25 4 -10 -10 -12 -9 -7 6 8 22 -1 22 -27 0 -20 -17 -20 -16 0 6 18 19 25 21
43 12 11 -7 21 -16 21 -21 0 -6 8 -10 18 -9 10 0 12 3 4 6 -8 3 -5 10 10 23
13 10 25 16 28 13 3 -2 -4 -9 -14 -15z m284 -18 c-16 -23 -25 -28 -34 -21 -7
6 -16 8 -19 4 -4 -3 -7 -2 -7 4 0 6 7 16 16 24 13 11 15 10 12 -3 -1 -9 2 -16
7 -15 6 1 9 10 8 20 -2 10 1 16 6 12 5 -3 13 0 16 6 4 5 9 8 12 5 3 -3 -5 -19
-17 -36z m-228 18 c-17 -17 -15 -31 3 -24 8 3 15 0 15 -6 0 -7 6 -6 18 3 15
11 15 11 4 -1 -16 -19 -71 -22 -68 -5 2 15 25 45 34 45 3 0 1 -5 -6 -12z
m-413 -37 c17 -11 5 -32 -14 -25 -8 4 -12 10 -9 15 9 15 -13 10 -26 -6 -7 -8
-17 -15 -22 -15 -13 0 34 39 47 40 6 0 16 -4 24 -9z m251 -16 c7 -9 8 -15 2
-15 -5 0 -12 7 -16 15 -3 8 -4 15 -2 15 2 0 9 -7 16 -15z m-115 -33 c-3 -3
-11 0 -18 7 -9 10 -8 11 6 5 10 -3 15 -9 12 -12z m615 8 c0 -5 -4 -10 -9 -10
-6 0 -13 5 -16 10 -3 6 1 10 9 10 9 0 16 -4 16 -10z m-969 -15 c5 4 6 -1 3 -9
-8 -20 0 -20 20 0 9 8 16 10 16 4 0 -6 -7 -13 -15 -16 -8 -4 -15 -10 -15 -15
0 -6 10 -5 23 1 21 11 21 10 3 -4 -18 -14 -21 -14 -38 1 -10 9 -18 26 -17 37
0 12 3 15 6 8 2 -6 9 -10 14 -7z m229 11 c0 -3 -4 -8 -10 -11 -5 -3 -10 -1
-10 4 0 6 5 11 10 11 6 0 10 -2 10 -4z m40 -16 c0 -5 -7 -10 -16 -10 -8 0 -12
5 -9 10 3 6 10 10 16 10 5 0 9 -4 9 -10z m644 -12 c-3 -5 -9 -6 -14 -3 -5 3
-13 -3 -19 -12 -6 -10 -11 -13 -11 -7 0 5 5 15 10 20 13 13 41 14 34 2z m-780
-39 c21 -13 25 -19 14 -19 -10 0 -18 -4 -18 -9 0 -5 8 -12 18 -15 14 -4 14 -5
-3 -4 -52 1 -58 -1 -45 -17 11 -13 10 -14 -3 -9 -21 8 -29 36 -21 71 9 38 17
50 22 34 2 -7 18 -21 36 -32z m179 -6 c7 -38 -3 -43 -19 -10 -7 16 -7 26 0 34
13 13 12 15 19 -24z m71 -3 c-3 -2 -9 2 -14 10 -8 13 -10 12 -10 -2 0 -10 -4
-18 -10 -18 -15 0 -12 38 3 43 12 4 39 -24 31 -33z m47 7 c-10 -9 -11 -8 -5 6
3 10 9 15 12 12 3 -3 0 -11 -7 -18z m244 -24 c-1 -14 -7 -29 -13 -35 -9 -9
-10 5 -3 30 2 6 -5 17 -9 15 -3 -1 -6 7 -6 16 0 15 4 16 17 8 10 -6 16 -21 14
-34z m125 12 c-33 -19 -49 -19 -24 0 10 8 26 14 34 14 9 0 4 -6 -10 -14z
m-354 -21 c-4 -9 -9 -15 -11 -12 -3 3 -3 13 1 22 4 9 9 15 11 12 3 -3 3 -13
-1 -22z m-206 6 c0 -6 -11 -8 -27 -4 -40 10 -41 14 -5 14 18 0 32 -5 32 -10z
m177 -22 c-3 -7 -5 -2 -5 12 0 14 2 19 5 13 2 -7 2 -19 0 -25z m-160 -15 c-14
-14 -19 -15 -29 -4 -9 9 -9 12 -1 7 6 -3 14 -2 18 4 3 5 11 10 18 10 6 0 4 -7
-6 -17z m373 -17 c-14 -14 -22 -2 -14 18 5 14 9 15 15 4 4 -7 4 -17 -1 -22z
m-477 11 c18 4 19 3 7 -6 -23 -16 -40 -13 -39 7 0 9 3 12 5 6 3 -7 15 -10 27
-7z m61 -2 c4 -11 -1 -15 -17 -14 -13 0 -16 3 -8 6 11 5 11 7 0 14 -11 7 -11
9 2 9 9 0 19 -7 23 -15z m296 -13 c0 -4 -9 -13 -20 -20 -22 -13 -27 -3 -8 16
14 14 28 16 28 4z m-185 -42 c8 -13 -5 -13 -25 0 -13 8 -13 10 2 10 9 0 20 -4
23 -10z m135 -11 c0 -6 -4 -7 -10 -4 -5 3 -10 11 -10 16 0 6 5 7 10 4 6 -3 10
-11 10 -16z m-40 1 c0 -5 -5 -10 -11 -10 -5 0 -7 5 -4 10 3 6 8 10 11 10 2 0
4 -4 4 -10z"/>
<path d="M1411 1344 c0 -11 3 -14 6 -6 3 7 2 16 -1 19 -3 4 -6 -2 -5 -13z"/>
<path d="M1068 1223 c7 -3 16 -2 19 1 4 3 -2 6 -13 5 -11 0 -14 -3 -6 -6z"/>
<path d="M1160 1166 c0 -2 9 -6 20 -9 11 -3 18 -1 14 4 -5 9 -34 13 -34 5z"/>
<path d="M687 953 c-4 -3 -7 -16 -7 -27 0 -16 2 -18 9 -7 7 11 9 11 13 0 3
-10 6 -9 11 3 6 17 -15 43 -26 31z"/>
</g>
</svg>
